<svg xmlns="http://www.w3.org/2000/svg" width="105" height="38" viewBox="0 0 105 38" role="img" aria-label="Django">
<!-- Local artwork; icon and font credits in credits.md. -->
<rect x=".5" y=".5" width="104" height="37" rx="8" fill="#111B2A" stroke="#33465D"/>
<path d="M9 37.5h87" stroke="#7BDCB5" stroke-opacity=".55"/>
<g transform="translate(12 9) scale(0.8333)" fill="#7BDCB5"><path d="M11.146 0h3.924v18.166c-2.013.382-3.491.535-5.096.535-4.791 0-7.288-2.166-7.288-6.32 0-4.002 2.65-6.6 6.753-6.6.637 0 1.121.05 1.707.203zm0 9.143a3.894 3.894 0 00-1.325-.204c-1.988 0-3.134 1.223-3.134 3.365 0 2.09 1.096 3.236 3.109 3.236.433 0 .79-.025 1.35-.102V9.142zM21.314 6.06v9.098c0 3.134-.229 4.638-.917 5.937-.637 1.249-1.478 2.039-3.211 2.905l-3.644-1.733c1.733-.815 2.574-1.53 3.109-2.625.561-1.121.739-2.421.739-5.835V6.059h3.924zM17.39.021h3.924v4.026H17.39z"/></g>
<path aria-label="Django" fill="#EAF2FC" d="M45.46 24H42.91V22.53H45.37Q46.48 22.53 47.22 22.12Q47.96 21.7 48.33 20.89Q48.7 20.08 48.7 18.89Q48.7 17.71 48.33 16.91Q47.96 16.11 47.24 15.7Q46.51 15.29 45.43 15.29H42.85V13.81H45.54Q47.05 13.81 48.13 14.42Q49.21 15.03 49.79 16.17Q50.37 17.31 50.37 18.89Q50.37 20.49 49.79 21.63Q49.21 22.77 48.11 23.39Q47.01 24 45.46 24ZM43.77 13.81V24H42.08V13.81ZM52.08 16.36H53.72V24.47Q53.73 25.27 53.43 25.8Q53.13 26.33 52.56 26.6Q51.99 26.86 51.18 26.86H50.85V25.48H51.1Q51.62 25.48 51.85 25.22Q52.08 24.96 52.08 24.45ZM52.9 15.23Q52.5 15.23 52.21 14.96Q51.91 14.68 51.91 14.3Q51.91 13.91 52.21 13.64Q52.5 13.37 52.9 13.37Q53.31 13.37 53.61 13.64Q53.9 13.91 53.9 14.3Q53.9 14.69 53.61 14.96Q53.31 15.23 52.9 15.23ZM57.82 24.16Q57.09 24.16 56.5 23.9Q55.92 23.63 55.58 23.12Q55.24 22.6 55.24 21.84Q55.24 21.2 55.49 20.78Q55.74 20.36 56.16 20.11Q56.58 19.86 57.1 19.73Q57.62 19.61 58.17 19.55Q58.84 19.47 59.26 19.41Q59.68 19.36 59.88 19.24Q60.08 19.12 60.08 18.86V18.82Q60.08 18.42 59.92 18.14Q59.76 17.86 59.45 17.71Q59.14 17.56 58.68 17.56Q58.21 17.56 57.87 17.7Q57.53 17.85 57.31 18.08Q57.1 18.31 56.99 18.56L55.46 18.21Q55.71 17.53 56.18 17.1Q56.66 16.67 57.3 16.47Q57.95 16.26 58.66 16.26Q59.16 16.26 59.7 16.38Q60.23 16.5 60.69 16.79Q61.15 17.08 61.43 17.6Q61.72 18.11 61.72 18.91V24H60.14V22.95H60.07Q59.91 23.26 59.61 23.54Q59.31 23.82 58.87 23.99Q58.42 24.16 57.82 24.16ZM58.21 22.9Q58.79 22.9 59.21 22.67Q59.63 22.44 59.86 22.06Q60.09 21.69 60.09 21.25V20.31Q60 20.39 59.78 20.45Q59.57 20.51 59.29 20.56Q59.02 20.61 58.75 20.65Q58.49 20.68 58.32 20.7Q57.91 20.76 57.57 20.88Q57.23 21.01 57.04 21.24Q56.84 21.47 56.84 21.85Q56.84 22.19 57.02 22.43Q57.2 22.66 57.51 22.78Q57.81 22.9 58.21 22.9ZM65.31 19.5V24H63.67V16.36H65.23L65.25 18.24H65.1Q65.43 17.23 66.06 16.75Q66.69 16.26 67.61 16.26Q68.39 16.26 68.97 16.59Q69.56 16.93 69.89 17.57Q70.21 18.21 70.21 19.14V24H68.57V19.37Q68.57 18.58 68.16 18.12Q67.74 17.67 67.02 17.67Q66.53 17.67 66.14 17.89Q65.76 18.1 65.53 18.51Q65.31 18.92 65.31 19.5ZM75.41 27.02Q74.51 27.02 73.85 26.79Q73.18 26.56 72.75 26.18Q72.33 25.79 72.12 25.3L73.5 24.74Q73.63 24.95 73.85 25.19Q74.08 25.42 74.45 25.58Q74.82 25.74 75.41 25.74Q76.26 25.74 76.78 25.34Q77.3 24.94 77.3 24.09V22.62H77.16Q77.03 22.89 76.78 23.18Q76.53 23.47 76.1 23.68Q75.67 23.88 74.99 23.88Q74.1 23.88 73.38 23.47Q72.66 23.05 72.24 22.22Q71.82 21.39 71.82 20.16Q71.82 18.92 72.24 18.05Q72.66 17.18 73.39 16.72Q74.11 16.26 75.01 16.26Q75.7 16.26 76.14 16.49Q76.57 16.72 76.83 17.04Q77.08 17.36 77.22 17.61H77.32V16.36H78.93V24.07Q78.93 25.08 78.47 25.73Q78.01 26.39 77.21 26.7Q76.42 27.02 75.41 27.02ZM75.41 22.56Q76.02 22.56 76.45 22.27Q76.87 21.98 77.09 21.44Q77.31 20.89 77.31 20.14Q77.31 19.39 77.09 18.83Q76.87 18.27 76.45 17.95Q76.03 17.63 75.41 17.63Q74.78 17.63 74.35 17.96Q73.93 18.3 73.71 18.86Q73.5 19.42 73.5 20.14Q73.5 20.86 73.72 21.41Q73.93 21.95 74.36 22.26Q74.79 22.56 75.41 22.56ZM84.15 24.16Q83.05 24.16 82.24 23.66Q81.43 23.17 80.98 22.28Q80.54 21.39 80.54 20.22Q80.54 19.03 80.98 18.14Q81.43 17.25 82.24 16.75Q83.05 16.26 84.15 16.26Q85.24 16.26 86.06 16.75Q86.87 17.25 87.31 18.14Q87.76 19.03 87.76 20.22Q87.76 21.39 87.31 22.28Q86.87 23.17 86.06 23.66Q85.24 24.16 84.15 24.16ZM84.15 22.8Q84.81 22.8 85.24 22.45Q85.67 22.1 85.88 21.51Q86.1 20.92 86.1 20.22Q86.1 19.5 85.88 18.91Q85.67 18.32 85.24 17.97Q84.81 17.62 84.15 17.62Q83.49 17.62 83.06 17.97Q82.63 18.32 82.42 18.91Q82.21 19.49 82.21 20.22Q82.21 20.92 82.42 21.51Q82.63 22.1 83.06 22.45Q83.49 22.8 84.15 22.8Z"/>
</svg>
